<svg width="auto" height="auto" viewBox="0 0 24 24" fill="none" xmlns="http://www.w3.org/2000/svg">
    <path
        d="M18.3448 5.17736C17.4083 4.22981 16.0626 3.80888 14.7531 4.05382C13.4434 4.29877 12.3409 5.17774 11.8101 6.39985C11.2795 7.62183 11.3898 9.02768 12.1049 10.1517L4.47461 17.7933L5.73701 19.0557L6.36742 18.4253L7.93692 20.0013L9.19932 18.7389L7.62176 17.1613L8.25217 16.5309L9.82973 18.1085L11.0921 16.8461L9.51457 15.2701L13.3721 11.4126C14.4963 12.1277 15.902 12.238 17.1239 11.7074C18.3461 11.1767 19.225 10.0741 19.47 8.76446C19.7149 7.45492 19.294 6.10907 18.3463 5.17269L18.3448 5.17736ZM16.4536 8.96148C16.2028 9.21219 15.8626 9.35281 15.5078 9.35268C15.1532 9.35254 14.8131 9.21165 14.5624 8.96079C14.3117 8.70993 14.1708 8.36977 14.1708 8.01512C14.1708 7.66047 14.3117 7.32029 14.5624 7.06945C14.8132 6.81861 15.1532 6.67771 15.5078 6.67743C15.8626 6.6773 16.2028 6.81806 16.4536 7.06863C16.7049 7.31961 16.846 7.66006 16.846 8.01509C16.846 8.37012 16.7049 8.71057 16.4536 8.96144V8.96148Z"
        fill="black" />
</svg>