<svg width="auto" height="auto" viewBox="0 0 24 24" fill="none" xmlns="http://www.w3.org/2000/svg">
<path d="M13.4083 15.8222C11.9831 16.3469 10.3215 16.0556 9.15857 14.9256C7.54215 13.3561 7.50414 10.7732 9.07308 9.15696C10.6434 7.54043 13.2258 7.50256 14.8424 9.07288C16.0686 10.2631 16.3827 12.036 15.7788 13.528L17.9888 15.3099C18.2818 14.7807 18.5035 14.2229 18.645 13.6495L18.6523 13.6498C18.6527 13.6498 18.7719 13.1636 18.995 13.1603C19.2185 13.1565 19.5489 13.152 19.5489 13.152C19.8014 13.1483 20.0038 12.9403 19.9999 12.6878L19.9761 11.0765C19.9723 10.8231 19.7647 10.6217 19.5114 10.6255C19.5114 10.6255 19.1804 10.6294 18.9577 10.6328C18.7346 10.6356 18.6017 10.1542 18.6017 10.1542L18.5945 10.1533C18.4308 9.56879 18.1875 9.00274 17.8661 8.46867L17.8724 8.46329C17.872 8.46329 17.6125 8.03416 17.7674 7.87457C17.9235 7.71383 18.1534 7.4768 18.1534 7.4768C18.3292 7.29583 18.3256 7.00596 18.1441 6.82946L16.9882 5.70693C16.8066 5.53083 16.5159 5.53467 16.3398 5.71628C16.3398 5.71628 16.1105 5.95317 15.9544 6.11366C15.7992 6.27312 15.3628 6.02574 15.3628 6.02574L15.3569 6.03239C14.8149 5.72703 14.2418 5.50087 13.6512 5.35423V5.34655C13.6509 5.34616 13.1639 5.22817 13.1609 5.00496C13.1576 4.78112 13.1529 4.45067 13.1529 4.45067C13.149 4.19855 12.9412 3.99635 12.6879 4.00005L11.077 4.02385C10.8241 4.02769 10.6227 4.23528 10.626 4.48857C10.626 4.48857 10.6306 4.81875 10.6341 5.04157C10.637 5.26465 10.1545 5.39863 10.1545 5.39863L10.1553 5.40528C9.56886 5.5682 9.00304 5.81227 8.46998 6.13338L8.46371 6.12787C8.46371 6.12787 8.03496 6.38729 7.87511 6.23243C7.71513 6.07719 7.47861 5.84645 7.47861 5.84645C7.297 5.67009 7.00635 5.67419 6.83025 5.85618L5.7081 7.01173C5.53174 7.19372 5.53622 7.48398 5.71744 7.65969C5.71744 7.65969 5.95472 7.89031 6.11444 8.04466C6.27493 8.2013 6.02741 8.63669 6.02741 8.63669L6.0333 8.64257C5.72793 9.18598 5.50129 9.75881 5.35549 10.3495L5.34691 10.3486C5.34781 10.349 5.22853 10.8348 5.00545 10.8394C4.78238 10.8422 4.45169 10.8467 4.45169 10.8467C4.19892 10.8492 3.9967 11.0586 4.00004 11.3115L4.02385 12.9224C4.02807 13.1753 4.23591 13.3777 4.48856 13.3734C4.48856 13.3734 4.81977 13.3688 5.04233 13.3651C5.2663 13.3623 5.39876 13.8449 5.39876 13.8449L5.40644 13.8453C5.57013 14.4295 5.81265 14.9957 6.13415 15.5298L6.12814 15.5348C6.12852 15.5348 6.38845 15.9643 6.23257 16.1246C6.07695 16.2846 5.84721 16.5215 5.84721 16.5215C5.6711 16.7025 5.67571 16.9921 5.85706 17.1686L7.01299 18.2912C7.19396 18.4682 7.48383 18.4643 7.66046 18.281C7.66046 18.281 7.89032 18.0449 8.04609 17.884C8.20133 17.7248 8.63724 17.9719 8.63724 17.9719L8.64287 17.9656C9.1854 18.271 9.75837 18.4972 10.3486 18.6435V18.6519C10.349 18.6519 10.8356 18.7699 10.8386 18.9934C10.8424 19.2177 10.847 19.5478 10.847 19.5478C10.8507 19.8007 11.059 20.0015 11.3113 19.998L12.9226 19.9742C13.1755 19.9709 13.3775 19.7626 13.3736 19.5096C13.3736 19.5096 13.3689 19.1801 13.3653 18.9569C13.3616 18.7335 13.8449 18.5997 13.8449 18.5997V18.5924C14.4081 18.4355 14.9514 18.2005 15.4668 17.8967L13.4083 15.8222Z" fill="black"/>
</svg>
