<svg width="auto" height="auto" viewBox="0 0 24 24" fill="none" xmlns="http://www.w3.org/2000/svg">
<path d="M18.8112 11.8236C19.8825 9.79423 19.8076 7.26535 18.4273 5.42627C17.7103 4.45944 16.7248 3.72498 15.5933 3.31434C15.5933 3.31434 11.3789 1.67263 8.27608 4.13023C7.47304 4.79544 6.85322 5.65461 6.47515 6.62627C6.12962 7.54595 5.82427 8.88604 6.09118 10.2263L4.63579 12.2077C4.5178 12.3664 4.46142 12.5627 4.47722 12.7599C4.49302 12.9571 4.57994 13.1418 4.72177 13.2797C4.8636 13.4175 5.0507 13.4992 5.24823 13.5095C5.39421 13.5193 5.53109 13.5842 5.63099 13.6911C5.73077 13.7981 5.78622 13.9391 5.78581 14.0855C5.78287 14.2096 5.74282 14.33 5.67064 14.4311C5.59376 14.5145 5.55238 14.6247 5.55546 14.7383C5.56309 14.8315 5.58921 14.9222 5.6322 15.0052L5.74738 15.1588L5.74751 15.1587C6.04336 15.6135 6.17848 16.1542 6.13148 16.6947L6.16991 16.9635C6.13027 17.3574 6.2563 17.7501 6.51774 18.0473C6.77931 18.3445 7.15271 18.5195 7.54844 18.5302L8.77337 18.5687C9.19268 18.5783 9.58686 18.7709 9.85203 19.0958C10.1171 19.4208 10.2268 19.8455 10.1519 20.2583V20.4119C10.153 20.6251 10.238 20.8294 10.3885 20.9803C10.5392 21.1312 10.7432 21.2167 10.9564 21.2183H17.661C17.9343 21.211 18.1862 21.0679 18.3323 20.8366C18.4785 20.6053 18.4995 20.3163 18.3886 20.0662L17.8913 19.0698C17.4561 18.1911 17.2392 17.2204 17.2593 16.24C17.2792 15.2597 17.5356 14.2986 18.0065 13.4384L18.8112 11.8236ZM11.6188 6.02318L12.0027 4.65991C12.0455 4.52799 12.133 4.41509 12.2505 4.34116C12.3477 4.29469 12.4618 4.30045 12.5538 4.35656C13.0032 4.54862 12.8015 5.1533 12.7862 5.1821V5.19549L11.9797 8.66109C11.4037 9.12381 10.7912 9.62109 10.5301 9.81316L11.6188 6.0287L11.6188 6.02318ZM10.5609 5.16683C10.5614 5.06826 10.5968 4.97303 10.6607 4.89803C10.716 4.85692 10.784 4.83656 10.8527 4.84044H10.9237C11.2289 4.86924 11.2712 5.30316 11.2712 5.31856L11.2866 5.98487L10.3996 9.06629L10.5609 5.16683ZM9.44337 6.73351C9.45783 6.58097 9.56591 6.4536 9.71417 6.41476C9.85681 6.35825 10.0195 6.41356 10.0981 6.54534L10.1115 6.55874L9.95215 10.3854L9.44337 6.73351ZM16.271 11.9175L15.8352 12.77C15.7334 13.0157 15.3725 13.6839 14.0822 14.4078C13.4295 14.7918 13.3143 15.1317 13.2989 15.1757C13.2895 15.1935 13.2849 15.2134 13.2855 15.2333V15.5521C11.878 16.6465 10.4822 15.6903 10.1828 15.458L10.1252 11.8484C10.0234 10.6754 10.6186 10.2394 10.6473 10.2106C10.7337 10.1396 12.7191 8.55941 13.2854 8.0813V8.08143C13.3875 7.98299 13.5383 7.95433 13.6694 8.00844C13.6828 8.00844 13.6982 8.02384 13.7116 8.02384L15.8582 8.58836C15.8716 8.58836 16.3075 8.70354 16.3075 9.08176C16.3071 9.16935 16.2701 9.25292 16.2057 9.31212C16.0091 9.42824 15.779 9.47418 15.553 9.4427L13.8864 9.03758C13.8167 9.00906 13.7368 9.03316 13.6943 9.09517L12.6518 10.4391C12.6195 10.4804 12.6082 10.5344 12.6211 10.5851C12.6912 10.9253 12.8212 11.2503 13.0051 11.5451C12.8362 11.4823 12.6876 11.3748 12.5749 11.2341C12.5506 11.1914 12.5098 11.1605 12.462 11.1486C12.4143 11.1366 12.3639 11.1447 12.3222 11.1709C12.2806 11.197 12.2514 11.2391 12.2414 11.2873C12.2315 11.3354 12.2418 11.3856 12.2697 11.4261C12.4885 11.7736 13.0664 12.0482 13.677 12.0482C13.8584 12.0531 14.0393 12.0285 14.2127 11.9752C14.427 11.9405 14.6268 11.8453 14.7888 11.7006C14.9571 11.5548 15.0886 11.3713 15.1727 11.165L15.5203 10.1359V10.1358C15.5865 10.0449 15.6791 9.97642 15.7857 9.93999C15.8922 9.90356 16.0074 9.90089 16.1155 9.93236C16.4188 10.0054 16.4994 10.1493 16.4994 10.1935L16.271 11.9175Z" fill="black"/>
</svg>
