<svg width="auto" height="auto" viewBox="0 0 24 24" fill="none" xmlns="http://www.w3.org/2000/svg">
<path d="M12.3165 7.91241C12.2126 7.90171 12.1061 7.89648 11.9997 7.89648C11.8932 7.89648 11.7867 7.90171 11.6828 7.91241C11.4406 8.04029 10.9348 8.99872 10.8789 10.7158H13.1259C13.0672 8.99866 12.5587 8.04026 12.3165 7.91241Z" fill="black"/>
<path d="M15.0643 11.6562H14.0475C13.9995 12.3857 13.8718 13.0886 13.6641 13.6662C14.3722 13.2191 14.8887 12.5029 15.0643 11.6562Z" fill="black"/>
<path d="M11.6822 14.1357C11.786 14.1464 11.8925 14.1516 11.999 14.1516C12.1055 14.1516 12.212 14.1464 12.3159 14.1357C12.5422 14.0159 13 13.1692 13.1038 11.6572H10.8916C10.9981 13.1692 11.4559 14.0159 11.6822 14.1357Z" fill="black"/>
<path d="M8.93457 11.6562C9.10762 12.5001 9.62675 13.2189 10.3323 13.6662C10.1245 13.0886 9.99686 12.3857 9.94884 11.6562H8.93457Z" fill="black"/>
<path d="M15.1114 10.7165C15.0156 9.73144 14.4591 8.88477 13.6631 8.38184C13.9001 9.04742 14.0358 9.87268 14.0624 10.7165H15.1114Z" fill="black"/>
<path d="M19.5286 3.02679H4.47112C4.21012 3.02679 4 3.23715 4 3.49791V22.0215C4 22.2825 4.21036 22.4926 4.47112 22.4926H19.5286C19.7896 22.4926 19.9998 22.2823 19.9998 22.0215L20 3.49487C20 3.23673 19.7896 3.02637 19.5289 3.02637L19.5286 3.02679ZM7.9317 11.0244C7.9317 8.95859 9.48102 7.25215 11.4777 6.99378C11.5601 6.97238 11.6455 6.95646 11.7358 6.95646C11.765 6.95646 11.7971 6.95907 11.8237 6.96454C11.8822 6.96193 11.9409 6.95646 12.002 6.95646C12.0633 6.95646 12.1192 6.96169 12.1803 6.96454C12.2095 6.95931 12.2388 6.95646 12.2682 6.95646C12.3588 6.95646 12.4413 6.97238 12.5264 6.99378C14.523 7.25192 16.0723 8.95859 16.0723 11.0244C16.0723 11.0617 16.0671 11.0962 16.0671 11.1335C16.0697 11.1521 16.0723 11.1682 16.0723 11.1868C16.0723 11.2241 16.0671 11.2614 16.059 11.2959C15.9311 13.2367 14.435 14.8074 12.529 15.0548C12.4465 15.0762 12.3611 15.0921 12.2708 15.0921C12.2416 15.0921 12.2095 15.0895 12.1829 15.084C12.1244 15.0867 12.0657 15.0921 12.0046 15.0921C11.9433 15.0921 11.8874 15.0869 11.8263 15.084C11.7971 15.0893 11.7678 15.0921 11.7384 15.0921C11.6478 15.0921 11.5653 15.0762 11.4802 15.0548C9.57152 14.8071 8.07782 13.2364 7.95016 11.2959C7.94207 11.2612 7.93684 11.2241 7.93684 11.1868C7.93684 11.1682 7.93946 11.1494 7.94207 11.1335C7.93708 11.0962 7.93162 11.0617 7.93162 11.0244H7.9317ZM12.7984 17.9352H7.50058C7.23958 17.9352 7.02946 17.7249 7.02946 17.4641C7.02946 17.2031 7.23982 16.993 7.50058 16.993L12.7984 16.9928C13.0594 16.9928 13.2695 17.2031 13.2695 17.4639C13.2695 17.7249 13.0594 17.9352 12.7984 17.9352ZM16.5307 17.9352H14.7097C14.4487 17.9352 14.2386 17.7249 14.2386 17.4641C14.2386 17.2031 14.4489 16.993 14.7097 16.993H16.5307C16.7917 16.993 17.0018 17.2034 17.0018 17.4641C17.0021 17.7249 16.7891 17.9352 16.5307 17.9352Z" fill="black"/>
<path d="M10.336 8.38184C9.53995 8.88504 8.98633 9.73437 8.8877 10.7165H9.93664C9.96326 9.87268 10.0964 9.04474 10.336 8.38184Z" fill="black"/>
<path d="M18.3216 1L5.05859 2.42427H18.3216V1Z" fill="black"/>
</svg>
