<svg width="auto" height="auto" viewBox="0 0 24 24" fill="none" xmlns="http://www.w3.org/2000/svg">
<path d="M17.0436 17.0622C16.9204 17.0622 16.7677 17.0895 16.6513 17.1306C16.6513 17.1306 14.2043 17.8786 13.3925 18.1272C13.2579 18.4419 12.7152 19.0485 12.063 18.9117C11.2761 18.7453 9.66831 18.2618 9.35144 18.1524C9.34006 18.1478 9.33095 18.1456 9.31956 18.1433C9.28997 18.1342 9.22153 18.1137 9.18269 18.0862C9.13474 18.0498 9.10287 17.9905 9.10287 17.9243C9.10287 17.8126 9.1918 17.7237 9.3035 17.7237C9.3035 17.7237 9.32854 17.726 9.34461 17.7282C9.35599 17.7305 9.50881 17.7785 9.54068 17.7876C9.54524 17.7898 9.54979 17.7898 9.55662 17.7921L11.876 18.4855C11.8896 18.49 11.9101 18.4969 11.933 18.5037H11.9353C12.0197 18.5265 12.1497 18.5516 12.1975 18.5585C12.4666 18.5972 12.7106 18.4057 12.7768 18.173C12.7905 18.1251 12.7973 18.0727 12.7973 18.0202V18.0088C12.7882 17.7853 12.6422 17.5779 12.4164 17.5071C8.85653 16.1001 8.7355 16.0339 8.14715 15.9723C7.85519 15.9427 7.36715 15.9359 7.0867 15.9336H6.21094V19.3954C6.21094 19.3954 6.88595 19.3795 7.25545 19.4548C7.78914 19.5619 8.48466 19.7991 9.41974 20.253C11.1986 21.1196 11.5179 20.9668 13.7709 19.7033C15.625 18.6634 16.7539 18.3989 17.2009 18.1799C17.3878 18.0887 17.6387 17.8674 17.6387 17.5938C17.6434 17.2582 17.3742 17.0621 17.0435 17.0621L17.0436 17.0622Z" fill="black"/>
<path d="M5.81406 15.548V19.6437C5.81406 19.7806 5.70237 19.89 5.56777 19.89H4.67836V20.3005C4.67836 20.4351 4.56667 20.5468 4.43207 20.5468H2.44336V14.6768H4.43207C4.56667 14.6768 4.67836 14.7885 4.67836 14.9231V15.3017H5.56551C5.70225 15.3017 5.81406 15.4135 5.81406 15.548Z" fill="black"/>
<path d="M6.94086 6.95036C7.06408 6.95036 7.21676 6.92304 7.33312 6.88193C7.33312 6.88193 9.78013 6.13395 10.592 5.88538C10.7266 5.57064 11.2693 4.96409 11.9215 5.10082C12.7083 5.26729 14.3162 5.75077 14.633 5.86018C14.6444 5.86473 14.6535 5.86701 14.6649 5.86928C14.6945 5.87839 14.7629 5.89888 14.8018 5.92634C14.8497 5.96277 14.8816 6.0221 14.8816 6.08826C14.8816 6.19996 14.7927 6.28889 14.681 6.28889C14.681 6.28889 14.6559 6.28661 14.6399 6.28433C14.6285 6.28206 14.4757 6.23411 14.4438 6.225C14.4392 6.22272 14.4347 6.22272 14.4279 6.22045L12.1085 5.52709C12.0948 5.52253 12.0743 5.5157 12.0514 5.50887H12.0492C11.9648 5.48611 11.8347 5.46093 11.7869 5.4541C11.5179 5.41539 11.2738 5.60691 11.2077 5.83954C11.194 5.88748 11.1872 5.93985 11.1872 5.99235V6.00373C11.1963 6.22726 11.3423 6.4347 11.5681 6.50543C15.1279 7.91248 15.249 7.97866 15.8373 8.04027C16.1293 8.06987 16.6173 8.0767 16.8978 8.07897H17.7735V4.61714C17.7735 4.61714 17.0985 4.63308 16.729 4.55781C16.1953 4.45067 15.4998 4.21348 14.5647 3.75961C12.7859 2.89297 12.4666 3.04578 10.2135 4.30924C8.35943 5.3492 7.23054 5.61371 6.78359 5.83269C6.59663 5.9239 6.34576 6.14515 6.34576 6.41877C6.34108 6.75212 6.608 6.95048 6.94093 6.95048L6.94086 6.95036Z" fill="black"/>
<path d="M21.568 3.46289V9.33535H19.5497C19.4151 9.33535 19.3034 9.22365 19.3034 9.08905V8.71044H18.4162C18.2816 8.71044 18.1699 8.59874 18.1699 8.46414V4.36837C18.1699 4.23377 18.2816 4.12207 18.4162 4.12207H19.3034V3.71157C19.3034 3.5747 19.4151 3.46528 19.5497 3.46528H21.568V3.46289Z" fill="black"/>
<path d="M16.7945 11.7716L12.06 8.56735C12.0578 8.56735 12.0578 8.56508 12.0555 8.56508C12.0509 8.5628 12.0464 8.56052 12.0418 8.55825C12.0395 8.55597 12.035 8.55597 12.0327 8.55369C12.0282 8.55142 12.0259 8.55142 12.0213 8.54914C12.0168 8.54686 12.0145 8.54686 12.0099 8.54459C12.0077 8.54459 12.0031 8.54231 12.0008 8.54231C11.9963 8.54003 11.9917 8.54003 11.9872 8.53776C11.9849 8.53776 11.9803 8.53548 11.9781 8.53548C11.9735 8.53548 11.969 8.5332 11.9644 8.5332H11.9553H11.9416H11.9303H11.9189H11.9052H11.8961C11.8916 8.5332 11.887 8.53548 11.8824 8.53548C11.8802 8.53548 11.8756 8.53776 11.8733 8.53776C11.8688 8.53776 11.8642 8.54003 11.8597 8.54231C11.8574 8.54231 11.8528 8.54459 11.8506 8.54459C11.846 8.54686 11.8437 8.54686 11.8392 8.54914C11.8346 8.55142 11.8324 8.55142 11.8278 8.55369C11.8255 8.55597 11.821 8.55597 11.8187 8.55825C11.8141 8.56052 11.8096 8.5628 11.805 8.56508C11.8028 8.56508 11.8028 8.56735 11.8005 8.56735L7.06117 11.7716C6.94492 11.8446 6.91063 11.9974 6.98362 12.1136C7.03157 12.1889 7.11139 12.2299 7.19349 12.2299C7.23916 12.2299 7.2847 12.2185 7.32581 12.1912L11.928 9.06907L16.5302 12.1912C16.5713 12.2162 16.6168 12.2299 16.6625 12.2299C16.7446 12.2299 16.8267 12.1888 16.8723 12.1136C16.9451 11.9973 16.9109 11.8446 16.7945 11.7716Z" fill="black"/>
<path d="M12.9652 12.2999H10.8899C10.6893 12.3135 10.5273 12.4823 10.5273 12.6442V14.6762C10.5273 14.9361 10.7029 15.1117 10.9173 15.1117H12.9379C13.1524 15.1117 13.3279 14.9361 13.3279 14.7217V12.6897C13.3278 12.4823 13.1658 12.3135 12.9652 12.2999ZM12.2104 14.4892H11.6426L11.7611 13.6316C11.6653 13.5746 11.6014 13.472 11.6014 13.3535C11.6014 13.1733 11.7474 13.0274 11.9276 13.0274C12.1077 13.0274 12.2537 13.1733 12.2537 13.3535C12.2537 13.472 12.1898 13.577 12.094 13.6316L12.2104 14.4892ZM11.3642 11.6819C11.3642 11.3717 11.6173 11.1186 11.9275 11.1186C12.2377 11.1186 12.4909 11.3717 12.4909 11.6819V12.1654H12.9425V11.6819C12.9425 11.1209 12.4863 10.667 11.9275 10.667C11.3665 10.667 10.9126 11.1232 10.9126 11.6819V12.1654H11.3642V11.6819Z" fill="black"/>
</svg>
