<svg width="auto" height="auto" viewBox="0 0 24 24" fill="none" xmlns="http://www.w3.org/2000/svg">
<path d="M8.55566 15.4727L8.6454 16.6369H11.4771C11.829 16.444 12.2195 16.3369 12.624 16.3369C12.6744 16.3369 12.7239 16.341 12.7737 16.3441L12.0859 15.6563C11.5914 15.9014 11.0469 16.0369 10.4907 16.0369C9.79655 16.0369 9.12959 15.8393 8.55568 15.4727L8.55566 15.4727Z" fill="black"/>
<path d="M12.9728 13.8939C13.0424 13.7379 13.1528 13.6048 13.2911 13.5075C13.422 13.1662 13.4912 12.8069 13.4912 12.4365C13.4912 10.7824 12.1454 9.43652 10.4912 9.43652C8.83706 9.43652 7.49121 10.7824 7.49121 12.4365C7.49121 12.6432 7.51947 12.8473 7.56112 13.0482C8.02707 13.1058 8.40352 13.4844 8.44011 13.9626L8.49475 14.6713C9.04545 15.1638 9.74872 15.4365 10.4912 15.4365C10.8866 15.4365 11.2772 15.3582 11.639 15.2086L10.9214 14.491C10.7825 14.52 10.6388 14.5365 10.4912 14.5365C9.33139 14.5365 8.39121 13.5963 8.39121 12.4365C8.39121 11.2767 9.33139 10.3365 10.4912 10.3365C11.651 10.3365 12.5912 11.2767 12.5912 12.4365C12.5912 12.7515 12.521 13.0498 12.3967 13.3179L12.9728 13.8939Z" fill="black"/>
<path d="M7.49102 7.03711H6.29102V14.5008L6.46713 13.797C6.53731 13.5156 6.72213 13.2879 6.96386 13.1573C6.91618 12.921 6.89101 12.6797 6.89101 12.4371C6.89101 11.7035 7.11266 11.021 7.49101 10.4513L7.49102 7.03711Z" fill="black"/>
<path d="M14.6912 12.4409V7.03711H13.4912V10.4513C13.8696 11.0211 14.0912 11.7033 14.0912 12.4371C14.0912 12.5259 14.0846 12.6135 14.0784 12.7013C14.2385 12.5467 14.4536 12.45 14.6912 12.4407V12.4409Z" fill="black"/>
<path d="M4.49121 20.2363H7.49121V20.8363H4.49121V20.2363Z" fill="black"/>
<path d="M13.4909 6.43693H14.6909C15.0218 6.43693 15.2909 6.706 15.2909 7.03693V12.6306C15.3185 12.6517 15.346 12.6727 15.3716 12.6967C15.4718 12.4702 15.659 12.2919 15.8909 12.2022V5.53672C15.8909 5.0405 15.4871 4.63672 14.9909 4.63672H13.3525C13.4423 4.92118 13.4909 5.22318 13.4909 5.53672L13.4909 6.43693Z" fill="black"/>
<path d="M5.34702 16.6367C5.44452 16.6367 5.53237 16.5824 5.57617 16.4947L5.63081 16.3858C5.65211 16.3435 5.67045 16.2997 5.69081 16.2568V7.03672C5.69081 6.70578 5.95988 6.43672 6.29081 6.43672H7.49081V5.53672C7.49081 5.22319 7.5397 4.92119 7.62916 4.63672H5.99082C5.4946 4.63672 5.09082 5.0405 5.09082 5.53672V16.3806C5.09082 16.5219 5.206 16.6368 5.34703 16.6368L5.34702 16.6367Z" fill="black"/>
<path d="M19.0958 15.7054C18.9896 15.44 18.8333 15.2027 18.631 15.0005L16.4657 12.8351C16.403 12.7727 16.3164 12.7367 16.2278 12.7367C16.0425 12.7367 15.8915 12.8876 15.8915 13.073C15.8915 13.163 15.9264 13.2472 15.99 13.3108L16.7037 14.0245L16.2795 14.4487L14.9658 13.135C14.903 13.0727 14.8164 13.0367 14.7278 13.0367C14.5425 13.0367 14.3915 13.1876 14.3915 13.373C14.3915 13.463 14.4264 13.5472 14.49 13.6108L15.8037 14.9245L15.3795 15.3487L14.0658 14.035C14.003 13.9727 13.9164 13.9367 13.8278 13.9367C13.6425 13.9367 13.4915 14.0876 13.4915 14.273C13.4915 14.363 13.5264 14.4472 13.59 14.5108L14.9037 15.8245L14.4795 16.2487L10.7657 12.5348C10.7029 12.4726 10.6162 12.4365 10.5277 12.4365C10.3423 12.4365 10.1914 12.5875 10.1914 12.7728C10.1914 12.8628 10.2262 12.9471 10.2898 13.0107L14.3136 17.0344C14.3146 17.0354 14.3158 17.0362 14.3166 17.0371L14.6037 17.3245L14.1796 17.7487L13.8909 17.4601C13.5521 17.1227 13.1028 16.9367 12.6249 16.9367C12.27 16.9367 11.9262 17.0407 11.631 17.2376L11.5191 17.3123C11.439 17.3654 11.3916 17.4544 11.3916 17.5505C11.3916 17.7082 11.52 17.8367 11.6778 17.8367H11.7225C12.3528 17.8367 12.9666 18.059 13.4508 18.4625L14.0608 18.9704C14.3602 19.22 14.7222 19.3807 15.1081 19.4359L16.3855 19.6183L19.4395 16.5643L19.0958 15.7054Z" fill="black"/>
<path d="M19.7907 17.0605L16.8867 19.9645L17.5407 20.8364H17.6907C19.3041 20.8364 20.6241 19.556 20.6883 17.9581L19.7907 17.0605Z" fill="black"/>
<path d="M8.07655 17.0609L7.84178 14.0088C7.82557 13.8003 7.64905 13.6367 7.43998 13.6367C7.25489 13.6367 7.09404 13.7621 7.04878 13.9421L6.79405 14.96C6.64793 15.5455 6.437 16.1155 6.16741 16.654L6.11276 16.7629C5.96705 17.0555 5.67336 17.2367 5.34723 17.2367C4.87502 17.2367 4.49102 16.8528 4.49102 16.3805V12.2607L4.08696 12.6645C3.5736 13.1779 3.29102 13.8607 3.29102 14.5867C3.29102 14.7357 3.30334 14.8861 3.32798 15.0337L3.79471 17.8333C3.85203 18.1789 3.94766 18.5197 4.07824 18.8468L4.39404 19.6366H7.58758L7.74053 19.2541C7.97316 18.6736 8.09103 18.0619 8.09103 17.4361C8.09103 17.311 8.08621 17.1856 8.07657 17.0607L8.07655 17.0609Z" fill="black"/>
<path d="M15.0223 20.0297C14.5263 19.9588 14.0608 19.7522 13.6756 19.4311L13.066 18.9233C12.6896 18.6091 12.212 18.4363 11.722 18.4363H11.6908V19.3363H9.29084V18.1363H11.0176C10.8782 17.9798 10.7908 17.7758 10.7908 17.5501C10.7908 17.4403 10.8172 17.336 10.855 17.2363H8.68332C8.68573 17.3029 8.69082 17.3692 8.69082 17.4359C8.69082 18.1382 8.55877 18.8249 8.29788 19.4768L8.09082 19.9942V20.2363H16.3406L16.3251 20.2156L15.0223 20.0297Z" fill="black"/>
<path d="M9.29082 5.53675C9.29082 4.87408 9.82815 4.33675 10.4908 4.33675C11.1535 4.33675 11.6908 4.87408 11.6908 5.53675V9.0459C12.1384 9.20433 12.5444 9.44821 12.8908 9.75866V5.53672C12.8908 4.21137 11.8162 3.13672 10.4908 3.13672C9.16547 3.13672 8.09082 4.21137 8.09082 5.53672V9.759C8.43728 9.44856 8.84322 9.20454 9.29082 9.04624V5.53675Z" fill="black"/>
</svg>
