<svg width="auto" height="auto" viewBox="0 0 24 24" fill="none" xmlns="http://www.w3.org/2000/svg">
<path d="M7.97965 13.7396H16.0436V18.3476L7.97965 18.3478V13.7396ZM19.8836 8.13325V19.8836H4.13965V4.13965H5.29172V9.51565C5.29172 9.72686 5.46449 9.89961 5.67568 9.89961H14.5077C14.7189 9.89961 14.8916 9.72684 14.8916 9.51565V4.13965H15.8901L19.8836 8.13325ZM16.8116 13.3556C16.8116 13.1444 16.6388 12.9717 16.4276 12.9717H7.59561C7.38441 12.9717 7.21165 13.1445 7.21165 13.3556V18.7316C7.21165 18.9429 7.38442 19.1156 7.59561 19.1156H16.4276C16.6388 19.1156 16.8116 18.9428 16.8116 18.7316V13.3556ZM14.1236 9.13165H6.05965V4.13965H14.1236V9.13165ZM12.9716 5.67565C12.9716 5.46444 12.7988 5.29168 12.5876 5.29168C12.3764 5.29168 12.2036 5.46445 12.2036 5.67565V7.59565C12.2036 7.80686 12.3764 7.97961 12.5876 7.97961C12.7988 7.97961 12.9716 7.80685 12.9716 7.59565V5.67565Z" fill="black"/>
</svg>
