<svg width="auto" height="auto" viewBox="0 0 24 24" fill="none" xmlns="http://www.w3.org/2000/svg">
<path d="M16.9971 17.6758C16.8124 17.6758 16.6458 17.7509 16.5227 17.8733C16.4001 17.9964 16.3252 18.1633 16.3252 18.3477V19.4037L18.0531 17.6758L16.9971 17.6758Z" fill="black"/>
<path d="M7.20554 6.05965H16.2299V4.13965H5.47754V17.3876H7.20561L7.20554 6.05965Z" fill="black"/>
<path d="M7.78125 6.63574V19.8837H15.7493V18.3477C15.7505 17.6592 16.3089 17.1008 16.9972 17.0998H18.5332L18.5338 6.63578L7.78125 6.63574ZM9.4137 9.51574C9.4137 9.35677 9.54267 9.2278 9.70164 9.2278H11.2377C11.3966 9.2278 11.5256 9.35677 11.5256 9.51574C11.5256 9.67471 11.3966 9.80369 11.2377 9.80369H9.70164C9.54267 9.80382 9.4137 9.67471 9.4137 9.51574ZM15.6537 13.6437H10.6617C10.5027 13.6437 10.3738 13.5148 10.3738 13.3558C10.3738 13.1968 10.5027 13.0679 10.6617 13.0679H15.6537C15.8127 13.0679 15.9416 13.1968 15.9416 13.3558C15.9416 13.5146 15.8127 13.6437 15.6537 13.6437ZM15.6537 11.7237H10.6617C10.5027 11.7237 10.3738 11.5948 10.3738 11.4358C10.3738 11.2768 10.5027 11.1479 10.6617 11.1479H15.6537C15.8127 11.1479 15.9416 11.2768 15.9416 11.4358C15.9416 11.5946 15.8127 11.7237 15.6537 11.7237Z" fill="black"/>
</svg>
