<svg width="39" height="52" viewBox="0 0 39 52" fill="none" xmlns="http://www.w3.org/2000/svg">
<mask id="mask0_642_2458" style="mask-type:alpha" maskUnits="userSpaceOnUse" x="2" y="0" width="36" height="41">
<path d="M3.94453 40.9362H9.60752H24.9196C41.4412 38.3862 39.9292 20.2076 31.2148 15.6835C35.2559 6.0047 26.8714 0 21.9231 0H4.10947C2.74596 0 2.27679 1.27954 2.21265 1.91931V38.8798C2.23464 40.2178 3.3764 40.8082 3.94453 40.9362Z" fill="#6D998F"/>
</mask>
<g mask="url(#mask0_642_2458)">
<path d="M3.89546 40.9362H9.56805H24.9061C41.4557 38.3862 39.9412 20.2076 31.212 15.6835C35.2599 6.0047 26.8612 0 21.9045 0H4.06069C2.69486 0 2.2249 1.27954 2.16064 1.91931V38.8798C2.18267 40.2178 3.32637 40.8082 3.89546 40.9362Z" fill="#6D998F"/>
<path d="M22.7981 21.7705C27.8563 21.1672 30.4221 17.4474 31.2376 15.6287H38.3301V41.2378H13.1765V29.2832C13.2425 26.0807 15.953 23.6715 17.3 22.8672C19.2793 21.7979 20.826 22.0056 22.7981 21.7705Z" fill="#91E9BB"/>
<path d="M9.75374 13.7093C4.8055 13.298 2.47246 9.04664 2.16091 6.03972L0.846903 5.70298C0.159646 4.29549 -1.27535 1.32147 -1.51726 0.685353C-1.75918 0.0492382 3.45847 -2.92478 6.09753 -4.33228L34.2475 -0.575909L36.9141 12.8867L31.2155 15.6834C27.0095 13.7093 28.2272 13.5447 13.2175 13.7641C11.2932 13.7641 10.1647 13.7434 9.75374 13.7093Z" fill="#91E9BB"/>
</g>
<path d="M0 45.4882H2.57419C3.10039 45.4882 3.55184 45.6178 3.92855 45.8771C4.35908 46.1725 4.57434 46.5735 4.57434 47.0799C4.57434 47.4115 4.51455 47.6889 4.39496 47.912C4.27537 48.1351 4.07206 48.3129 3.78504 48.4456C4.62218 48.6566 5.04075 49.1992 5.04075 50.0735C5.04075 50.6885 4.80455 51.1527 4.33217 51.4663C3.92556 51.7376 3.40235 51.8733 2.76254 51.8733H0V45.4882ZM2.45759 50.6614C2.74461 50.6614 2.96884 50.6161 3.13029 50.5257C3.33359 50.4111 3.43524 50.2182 3.43524 49.9469C3.43524 49.6756 3.33957 49.4796 3.14822 49.359C2.99874 49.2626 2.78048 49.2143 2.49347 49.2143H1.58757V50.6614H2.45759ZM2.25129 47.9843C2.73564 47.9843 2.97781 47.7371 2.97781 47.2427C2.97781 47.0558 2.88512 46.9141 2.69976 46.8177C2.55625 46.7453 2.37985 46.7091 2.17057 46.7091H1.58757V47.9843H2.25129Z" fill="#261931"/>
<path d="M5.81709 45.4882H7.40466V48.943C7.40466 49.4555 7.52724 49.8625 7.7724 50.1639C8.02354 50.4594 8.40025 50.6071 8.90253 50.6071C9.51244 50.6071 9.934 50.4413 10.1672 50.1097C10.3585 49.8384 10.4542 49.3801 10.4542 48.735V45.4882H12.0597V49.151C12.0597 50.0916 11.7667 50.8091 11.1807 51.3035C10.6306 51.7677 9.88018 51.9999 8.92944 51.9999C8.1521 51.9999 7.48837 51.822 6.93825 51.4663C6.31638 51.0623 5.95462 50.4956 5.85297 49.766C5.84101 49.6756 5.83204 49.567 5.82606 49.4404C5.82008 49.3138 5.81709 49.1932 5.81709 49.0787V45.4882Z" fill="#261931"/>
<path d="M12.9763 45.4882H18.9947V46.7272H16.7793V51.8733H15.1917V46.7272H12.9763V45.4882Z" fill="#261931"/>
<path d="M19.9998 45.4882H24.1526V46.7182H21.5874V47.9934H24.1167V49.2143H21.5874V51.8733H19.9998V45.4882Z" fill="#261931"/>
<path d="M28.565 45.3616C29.5816 45.3616 30.4277 45.648 31.1034 46.2208C31.8149 46.8237 32.1707 47.6316 32.1707 48.6445C32.1707 49.6756 31.8269 50.4986 31.1392 51.1136C30.4815 51.7044 29.6354 51.9999 28.6009 51.9999C27.5665 51.9999 26.7174 51.7165 26.0536 51.1497C25.3481 50.5468 24.9953 49.7328 24.9953 48.7079C24.9953 47.6527 25.3331 46.8237 26.0088 46.2208C26.6546 45.648 27.5067 45.3616 28.565 45.3616ZM28.5919 50.589C29.1361 50.589 29.5905 50.4142 29.9553 50.0645C30.326 49.7087 30.5114 49.2565 30.5114 48.7079C30.5114 48.117 30.332 47.6467 29.9732 47.297C29.6204 46.9413 29.151 46.7634 28.565 46.7634C27.985 46.7634 27.5186 46.9352 27.1658 47.2789C26.819 47.6165 26.6456 48.0778 26.6456 48.6626C26.6456 49.2354 26.828 49.6997 27.1927 50.0554C27.5575 50.4111 28.0239 50.589 28.5919 50.589Z" fill="#261931"/>
<path d="M33.0309 45.4882H35.327C36.0206 45.4882 36.5618 45.6208 36.9504 45.8861C37.4049 46.1996 37.6321 46.6941 37.6321 47.3693C37.6321 47.7552 37.5454 48.0627 37.372 48.2918C37.1986 48.5149 36.9265 48.7079 36.5558 48.8706C36.8727 48.9912 37.1358 49.2234 37.3451 49.567C37.3869 49.6334 37.5364 49.965 37.7936 50.5619C37.9729 50.9839 38.2091 51.4211 38.5021 51.8733H36.6455L36.0984 50.6704C35.8771 50.1941 35.7246 49.8986 35.6409 49.7841C35.4197 49.4766 35.1416 49.3228 34.8068 49.3228L34.6453 49.3319V51.8733H33.0309V45.4882ZM35.2014 48.0838C35.4286 48.0838 35.614 48.0265 35.7575 47.912C35.907 47.7974 35.9818 47.6256 35.9818 47.3965C35.9818 47.1854 35.913 47.0227 35.7755 46.9081C35.6439 46.7875 35.4675 46.7272 35.2463 46.7272H34.6453V48.0838H35.2014Z" fill="#261931"/>
</svg>
