<svg width="336" height="261"
    viewBox="0 0 350 272" fill="none" xmlns="http://www.w3.org/2000/svg">
    <defs id="SvgjsDefs1225"></defs>
    <g id="SvgjsG1226" featurekey="symbolFeature-0"
        transform="matrix(1.7210831390206112,0,0,1.7210831390206112,88.94659478854547,-22.15593189117512)"
        fill="#ffffff">
        <path xmlns="http://www.w3.org/2000/svg"
            d="M89.821,57.615l-7.519-7.519l0.927-2.86c0.323-1.005-0.65-2.215-2.175-2.708c-1.526-0.495-3.028-0.088-3.354,0.917  l-0.012,0.037L54.107,21.9l4.067-4.068c1.139-1.137,1.133-2.976,0-4.109c-1.135-1.133-2.973-1.133-4.107,0l-4.068,4.069  l-4.069-4.069c-1.133-1.133-2.973-1.133-4.106,0s-1.138,2.973,0,4.109l4.067,4.067L22.437,45.355  c-0.387-0.935-1.832-1.307-3.309-0.828c-1.524,0.493-2.499,1.703-2.175,2.708l0.882,2.722l-7.657,7.657  c-1.134,1.136-1.134,2.975,0,4.109c1.133,1.133,2.973,1.133,4.106,0l5.562-5.562l9.669,29.836c0.327,1,1.826,1.413,3.352,0.919  c1.525-0.494,2.499-1.71,2.175-2.71L24.46,51.549L50,26.008l25.678,25.68L65.141,84.208c-0.323,1,0.65,2.216,2.176,2.71  c1.524,0.494,3.024,0.081,3.351-0.919l9.625-29.698l5.423,5.424c1.134,1.133,2.973,1.133,4.106,0  C90.955,60.59,90.955,58.751,89.821,57.615z"></path>
    </g>
    <g id="SvgjsG1227" featurekey="nameFeature-0"
        transform="matrix(1.225301370739669,0,0,1.225301370739669,-2.548626757655436,133.78650596908136)"
        fill="#ffffff">
        <path
            d="M2.08 37.04 c1.88 1.76 5.4 3.36 8.92 3.36 c5.4 0 9.04 -2.92 9.04 -7.28 c0 -3.52 -1.56 -5.52 -8.12 -9.16 c-4.92 -2.72 -6.16 -3.72 -6.16 -5.76 c0 -2.2 2.16 -3.96 5.36 -3.96 c1.92 0 4.28 0.84 5.68 1.72 l1.44 -2.24 c-1.88 -1.2 -4.64 -2.12 -7.08 -2.12 c-4.96 0 -8.36 2.84 -8.36 6.64 c0 3.36 1.72 5.04 7.12 7.92 c5.24 2.76 7.12 4.6 7.12 6.96 c0 2.68 -2.52 4.52 -6 4.52 c-2.84 0 -5.76 -1.4 -7.36 -2.84 z M56.596000000000004 26 c0 5.44 -2.92 10.12 -7.28 12.6 l3.04 3.72 l-3.04 0 l-2.24 -2.72 c-1.48 0.52 -3.12 0.8 -4.8 0.8 c-8 0 -14.28 -6.4 -14.28 -14.4 s6.28 -14.4 14.28 -14.4 s14.32 6.4 14.32 14.4 z M47.596000000000004 36.48 c3.68 -1.92 6.12 -5.84 6.12 -10.48 c0 -6.6 -4.96 -11.76 -11.44 -11.76 s-11.44 5.16 -11.44 11.76 s4.96 11.76 11.44 11.76 c1.04 0 2.04 -0.12 3 -0.4 l-3.44 -4.2 l3.04 0 z M65.75200000000001 28.92 l0 -16.92 l2.8 0 l0 16.72 c0 6 3.4 8.92 8.2 8.92 c4.84 0 8.24 -2.92 8.24 -8.92 l0 -16.72 l2.8 0 l0 16.92 c0 7.32 -4.08 11.48 -11.04 11.48 s-11 -4.16 -11 -11.48 z M117.308 40 l-2.72 -6.32 l-13.56 0 l-2.72 6.32 l-3 0 l12.32 -28.4 l0.36 0 l12.32 28.4 l-3 0 z M102.14800000000001 31.08 l11.32 0 l-5.68 -13.16 z M148.06400000000002 22.04 c0 4.44 -2.28 8.56 -7 9.68 l6.36 8.28 l-3.4 0 l-6.12 -7.96 l-7 0 l0 7.96 l-2.8 0 l0 -28 l10.2 0 c6.6 0 9.76 4.76 9.76 10.04 z M130.90400000000002 14.600000000000001 l0 14.84 l7.24 0 c5.04 0 7.16 -3.8 7.16 -7.4 s-2.12 -7.44 -7.16 -7.44 l-7.24 0 z M174.26000000000005 37.36 l0.2 2.64 l-16.96 0 l0 -28 l16.16 0 l0.2 2.64 l-13.56 0 l0 7.84 l9.48 0 l0 2.64 l-9.48 0 l0 12.24 l13.96 0 z M213.852 40.4 c-8 0 -14.28 -6.4 -14.28 -14.4 s6.28 -14.4 14.28 -14.4 s14.32 6.4 14.32 14.4 s-6.32 14.4 -14.32 14.4 z M213.852 37.76 c6.48 0 11.44 -5.16 11.44 -11.76 s-4.96 -11.76 -11.44 -11.76 s-11.44 5.16 -11.44 11.76 s4.96 11.76 11.44 11.76 z M257.368 12 l2.76 0 l0 28.4 l-0.36 0 l-19.36 -21.8 l0 21.4 l-2.76 0 l0 -28.4 l0.36 0 l19.36 21.8 l0 -21.4 z M287.524 37.36 l0.2 2.64 l-16.96 0 l0 -28 l16.16 0 l0.2 2.64 l-13.56 0 l0 7.84 l9.48 0 l0 2.64 l-9.48 0 l0 12.24 l13.96 0 z"></path>
    </g>
    <g id="SvgjsG1228" featurekey="sloganFeature-0"
        transform="matrix(3.1727506148366214,0,0,3.1727506148366214,64.4221734737617,186.52882315893828)"
        fill="#ffffff">
        <path
            d="M-1.02 26.72 c-2.42 -0.78 -3.18 -2.96 -2.1 -5.08 c1.48 -2.86 3.8 -4.58 6.3 -5 c2.44 -0.4 3.98 0.92 3.84 2.92 c-0.1 1.34 -0.62 2.8 -1.76 3.98 c-0.12 0.12 -0.28 0.4 -0.46 0.24 c-0.22 -0.2 0.1 -0.32 0.22 -0.44 c1 -1.02 1.56 -2.34 1.66 -3.66 c0.12 -1.6 -1 -3.02 -3.82 -2.54 c-2.22 0.38 -4.32 2.32 -5.46 4.3 c-1.22 2.12 -0.7 4.4 2.2 5.06 c2.9 0.68 7.56 -0.92 8.32 -5.5 c0.58 -3.24 -0.9 -6.96 0.24 -9.82 c0.26 -0.56 0.18 -0.68 -0.46 -0.74 c-1.24 -0.1 -4 -0.14 -5.02 0.74 s-1.16 2.2 0.22 3.12 c0.1 0.06 0.32 -0.02 0.28 0.18 c-0.06 0.22 -0.26 0.18 -0.4 0.1 c-0.62 -0.28 -1.14 -0.7 -1.26 -1.42 c-0.12 -0.86 0.12 -1.62 0.8 -2.14 c1.08 -0.84 2.06 -0.94 4.26 -0.94 c1.16 0.06 2.16 0.14 2.52 -0.48 c0.98 -1.38 3.12 -2.94 4.88 -3.36 c1.06 -0.26 2.18 -0.04 2.52 0.8 c0.26 0.62 -0.22 1.58 -1.12 2.1 c-1.38 0.82 -4.46 1.5 -5.86 1.3 c-0.5 -0.06 -0.7 0.26 -0.86 0.66 c-1.28 3.26 0.52 6.22 -0.4 10.26 c-0.96 4.16 -5.3 6.62 -9.28 5.36 z M9.42 10.02 c0.24 0.38 4.04 -0.32 5.26 -0.9 c2.52 -1.16 1.56 -3.3 -1 -2.4 c-1.58 0.58 -2.96 1.48 -4.04 2.8 c-0.1 0.14 -0.34 0.28 -0.22 0.5 z M14.12 14.32 c-0.22 0.02 -0.36 -0.12 -0.4 -0.34 c-0.08 -0.5 0.38 -0.58 0.66 -0.72 c0.2 -0.1 0.34 0.1 0.4 0.32 c-0.12 0.32 -0.24 0.68 -0.66 0.74 z M13.18 19.84 c-0.74 0.22 -1.34 -0.28 -1.28 -1.08 c0.22 -0.84 0.62 -1.68 1.02 -2.52 c0.08 -0.16 0.22 -0.3 0.38 -0.18 c0.2 0.14 0.02 0.3 -0.04 0.44 c-0.26 0.6 -0.56 1.2 -0.78 1.82 c-0.12 0.36 -0.28 0.78 0.12 1.12 c0.26 0.2 0.7 0 1.02 -0.12 c1.26 -0.52 2.26 -1.98 3.72 -3.06 c0.1 -0.06 0.18 -0.22 0.3 -0.06 c0.1 0.12 -0.02 0.22 -0.12 0.28 c-1.94 1.4 -2.3 2.78 -4.34 3.36 z M21.26 19.88 c-0.38 -0.4 -0.2 -0.94 -0.08 -1.42 c0.14 -0.54 0.38 -1.06 0.48 -1.6 c0.12 -0.58 -0.18 -0.8 -0.74 -0.58 c-0.88 0.32 -1.64 0.86 -2.3 1.52 c-0.58 0.58 -1.12 1.16 -1.7 1.72 c-0.14 0.14 -0.28 0.44 -0.56 0.28 c-0.18 -0.1 -0.12 -0.36 -0.08 -0.54 c0.18 -1.14 0.76 -2.1 1.22 -3.14 c0.04 -0.1 0.16 -0.16 0.22 -0.1 c0.06 0.1 0.1 0.26 0.06 0.36 c-0.24 0.58 -0.52 1.16 -0.76 1.74 c-0.1 0.24 -0.22 0.5 -0.28 0.74 c-0.02 0.1 -0.06 0.38 0.18 0.14 c1 -0.94 1.84 -2.02 3.08 -2.68 c0.52 -0.28 1.08 -0.88 1.7 -0.4 c0.66 0.5 0.3 1.22 0.12 1.84 c-0.12 0.46 -0.3 0.88 -0.38 1.34 c-0.1 0.5 0.08 0.74 0.66 0.5 c0.96 -0.42 1.74 -1.1 2.54 -1.72 c0.7 -0.56 1.24 -1.02 1.94 -1.58 c0.1 -0.1 0.28 -0.26 0.4 -0.1 c0.08 0.1 -0.1 0.2 -0.2 0.28 c-1.2 1.04 -2.26 1.96 -3.56 2.88 c-0.2 0.14 -0.4 0.26 -0.6 0.34 c-0.44 0.2 -0.9 0.64 -1.36 0.18 z M27.299999999999997 20.06 c-1.18 0.32 -1.98 -0.3 -1.98 -1.5 c0 -1.46 1.58 -2.94 2.92 -2.78 c0.46 0.06 0.68 0.26 0.64 0.72 c-0.04 0.52 -0.38 0.74 -0.84 0.8 c-0.06 0.02 -0.12 -0.04 -0.18 -0.06 c0.02 -0.06 0.04 -0.12 0.08 -0.16 c0.12 -0.1 0.28 -0.16 0.42 -0.26 c0.18 -0.12 0.2 -0.32 0.12 -0.52 c-0.08 -0.18 -0.26 -0.16 -0.42 -0.18 c-1.04 -0.02 -2.48 1.54 -2.38 2.58 c0.06 0.8 0.72 1.24 1.58 1 c1.42 -0.38 2.52 -1.3 3.62 -2.18 c0.6 -0.48 1.02 -0.82 1.68 -1.24 c0.14 -0.08 0.28 -0.2 0.42 -0.04 c0.02 0.02 -0.12 0.22 -0.22 0.28 c-1.18 0.92 -2.2 1.68 -3.4 2.58 c-0.62 0.46 -1.32 0.76 -2.06 0.96 z M33.1 19.9 c-1.32 0 -1.86 -0.76 -1.48 -2.02 c0.26 -0.78 0.7 -1.42 1.36 -1.9 c0.48 -0.34 1.02 -0.38 1.48 -0.02 c0.36 0.28 0.24 1.04 -0.22 1.5 c-0.5 0.5 -1.1 0.8 -1.84 0.76 c-0.48 -0.04 -0.66 0.3 -0.42 0.74 c0.26 0.48 0.98 0.74 1.68 0.54 c1.16 -0.34 2.16 -1 3.02 -1.84 c0.52 -0.5 0.94 -0.82 1.46 -1.34 c0.08 -0.08 0.2 -0.22 0.32 -0.06 c0.06 0.08 0.02 0.18 -0.04 0.26 c-1.36 1.4 -2.6 2.64 -4.54 3.28 c-0.26 0.08 -0.52 0.08 -0.78 0.1 z M32.5 17.84 c0.52 0.24 1.78 -0.62 1.8 -1.32 c-0.02 -0.3 -0.26 -0.46 -0.66 -0.4 c-0.4 0.04 -1.3 0.94 -1.36 1.34 c-0.04 0.2 0.06 0.32 0.22 0.38 z M43.900000000000006 22.6 c-0.14 0.04 -0.34 0.1 -0.4 -0.14 c-0.04 -0.18 0.18 -0.2 0.28 -0.2 c1.18 0.02 1.26 -0.9 1.54 -1.7 c1.04 -2.88 2.02 -5.8 3.28 -8.6 c0.08 -0.16 0.28 -0.4 0.1 -0.54 c-0.16 -0.12 -0.32 0.14 -0.46 0.26 l-1.18 1.08 c-0.1 0.08 -0.16 0.36 -0.36 0.14 c-0.12 -0.12 -0.04 -0.32 0.1 -0.44 l2.6 -2.28 c0.08 -0.08 0.2 -0.08 0.26 0.02 c0.04 0.06 0 0.18 -0.02 0.26 c-0.2 0.52 -0.4 1.06 -0.62 1.56 c-1.26 2.92 -2.32 5.92 -3.4 8.9 c-0.1 0.3 -0.32 0.58 -0.22 0.94 c-0.02 0.02 -0.04 0.04 -0.06 0.04 l0.04 0.04 c0.02 0 0.04 -0.02 0.06 -0.04 c0.12 0 0.26 -0.02 0.4 0 c0.22 0.04 0.62 -0.14 0.64 0.18 c0.02 0.24 -0.4 0.08 -0.58 0.18 c-0.64 0.28 -1.34 0.2 -2 0.34 z M57.34 10.04 c0.64 0.48 0.8 1.14 0.58 1.96 c-0.12 0.48 -0.24 0.94 -0.46 1.38 c-1.08 2.42 -2.14 4.86 -3.66 7.06 c-0.42 0.6 -0.94 1.1 -1.58 1.48 c-0.66 0.36 -1.28 0.3 -1.86 -0.14 c-0.54 -0.42 -0.72 -1.02 -0.68 -1.68 c0.02 -0.1 0.06 -0.24 0.1 -0.26 c0.18 -0.04 0.22 0.1 0.22 0.24 c0 0.28 0.08 0.52 0.2 0.76 c0.38 0.86 1.16 1.12 1.94 0.62 c0.36 -0.24 0.72 -0.52 0.98 -0.86 c1.16 -1.5 2.06 -3.12 2.7 -4.9 c-0.32 0.2 -0.64 0.38 -0.96 0.54 c-1.2 0.56 -2.4 -0.1 -2.58 -1.4 c-0.2 -1.66 1.1 -4.18 2.62 -4.94 c0.82 -0.42 1.68 -0.42 2.44 0.14 z M57.60000000000001 11.98 c0.06 -0.14 0.08 -0.32 0.08 -0.38 c-0.04 -1.26 -1.44 -1.98 -2.52 -1.34 c-1.4 0.82 -2.12 2.14 -2.38 3.72 c-0.16 0.94 0.1 1.74 0.7 2 c0.74 0.32 1.36 -0.04 1.9 -0.5 c0.3 -0.26 0.62 -0.54 0.82 -0.88 c0.5 -0.84 0.94 -1.74 1.4 -2.62 z M65.68 10.04 c0.64 0.48 0.8 1.14 0.58 1.96 c-0.12 0.48 -0.24 0.94 -0.46 1.38 c-1.08 2.42 -2.14 4.86 -3.66 7.06 c-0.42 0.6 -0.94 1.1 -1.58 1.48 c-0.66 0.36 -1.28 0.3 -1.86 -0.14 c-0.54 -0.42 -0.72 -1.02 -0.68 -1.68 c0.02 -0.1 0.06 -0.24 0.1 -0.26 c0.18 -0.04 0.22 0.1 0.22 0.24 c0 0.28 0.08 0.52 0.2 0.76 c0.38 0.86 1.16 1.12 1.94 0.62 c0.36 -0.24 0.72 -0.52 0.98 -0.86 c1.16 -1.5 2.06 -3.12 2.7 -4.9 c-0.32 0.2 -0.64 0.38 -0.96 0.54 c-1.2 0.56 -2.4 -0.1 -2.58 -1.4 c-0.2 -1.66 1.1 -4.18 2.62 -4.94 c0.82 -0.42 1.68 -0.42 2.44 0.14 z M65.94000000000001 11.98 c0.06 -0.14 0.08 -0.32 0.08 -0.38 c-0.04 -1.26 -1.44 -1.98 -2.52 -1.34 c-1.4 0.82 -2.12 2.14 -2.38 3.72 c-0.16 0.94 0.1 1.74 0.7 2 c0.74 0.32 1.36 -0.04 1.9 -0.5 c0.3 -0.26 0.62 -0.54 0.82 -0.88 c0.5 -0.84 0.94 -1.74 1.4 -2.62 z M68.52000000000001 22.2 c-1.16 0.28 -2.28 -0.68 -2.16 -1.82 c0.02 -0.16 0.02 -0.38 0.24 -0.36 c0.14 0.02 0.08 0.2 0.1 0.32 c0.22 1.32 0.96 1.76 2.2 1.28 c0.46 -0.18 0.86 -0.48 1.2 -0.84 c1.02 -1.08 1.88 -3.26 1.88 -4.72 c0.02 -1.48 -0.56 -1.94 -1.98 -1.56 c-0.18 0.04 -0.38 0.1 -0.56 0.16 c-0.58 0.24 -0.56 -0.12 -0.44 -0.46 c0.16 -0.44 0.38 -0.84 0.6 -1.26 c0.18 -0.36 0.32 -0.74 0.54 -1.08 c0.36 -0.58 0.32 -1.66 1.12 -1.64 c0.7 0.02 1.36 -0.28 2.04 -0.12 c0.12 0.02 0.3 -0.06 0.32 0.14 c0 0.18 -0.18 0.18 -0.3 0.18 c-0.34 -0.02 -0.66 0.2 -0.96 0.16 c-1.1 -0.16 -1.5 0.52 -1.84 1.36 c-0.24 0.62 -0.54 1.2 -0.86 1.78 c-0.18 0.36 -0.04 0.42 0.28 0.38 c0.06 -0.02 0.12 -0.02 0.18 -0.04 c1.6 -0.32 2.48 0.36 2.36 1.98 c-0.16 2.04 -0.92 3.86 -2.38 5.32 c-0.44 0.44 -1 0.7 -1.58 0.84 z"></path>
    </g>
</svg>